<?xml version="1.0" encoding="utf-8"?>
<!-- Generator: Adobe Illustrator 21.1.0, SVG Export Plug-In . SVG Version: 6.00 Build 0)  -->
<svg version="1.1" id="Layer_1" xmlns="http://www.w3.org/2000/svg" xmlns:xlink="http://www.w3.org/1999/xlink" x="0px" y="0px"
	 viewBox="0 0 4000 4000" style="enable-background:new 0 0 4000 4000;" xml:space="preserve">
<style type="text/css">
	.st0{display:none;fill:none;stroke:#7E4F48;stroke-width:200;stroke-miterlimit:10;}
	.st1{display:none;fill:#CB5905;stroke:#CB5905;stroke-miterlimit:10;}
	.st2{display:none;fill:#FF7E20;stroke:#FF7E20;stroke-miterlimit:10;}
	.st3{display:none;fill:#00727E;stroke:#00727E;stroke-miterlimit:10;}
	.st4{fill:#05B7CB;stroke:#05B7CB;stroke-miterlimit:10;}
	.st5{display:none;fill:#05B7CB;stroke:#05B7CB;stroke-miterlimit:10;}
</style>
<title>green Artboard 1</title>
<polygon class="st0" points="1103.5,2371.4 1628.7,2896.6 2371.4,2896.6 2896.5,2371.4 2896.5,1628.7 2371.4,1103.5 1628.7,1103.5 
	1103.5,1628.7 "/>
<polygon class="st1" points="2129.3,339.8 1871.3,339.8 1688.9,522.2 1688.9,780.2 1871.3,962.6 2129.3,962.6 2311.7,780.2 
	2311.7,522.2 "/>
<polygon class="st2" points="2110.2,389.4 1893.6,389.4 1740.4,542.6 1740.4,759.2 1893.6,912.4 2110.2,912.4 2263.4,759.2 
	2263.4,542.6 "/>
<polyline class="st3" points="1998.6,2805.3 2341.9,2808.3 2809.4,2340.8 2803.6,1673.9 2327.9,1198.3 1998.6,1195.4 "/>
<polyline class="st1" points="1998.6,1195.4 1661,1192.5 1193.6,1659.9 1199.4,2326.8 1675,2802.5 1998.6,2805.3 "/>
<polyline class="st4" points="1998.6,2679.7 2285,2682.2 2677.5,2289.6 2672.7,1729.6 2273.2,1330.1 1998.6,1327.8 "/>
<polyline class="st2" points="1998.6,1327.8 1713.2,1325.3 1320.7,1717.8 1325.5,2277.9 1724.9,2677.3 1998.6,2679.7 "/>
<polygon class="st3" points="2129.3,3037.4 1871.3,3037.4 1688.9,3219.8 1688.9,3477.8 1871.3,3660.2 2129.3,3660.2 2311.7,3477.8 
	2311.7,3219.8 "/>
<polygon class="st5" points="2110.2,3087.1 1893.6,3087.1 1740.4,3240.3 1740.4,3456.9 1893.6,3610.1 2110.2,3610.1 2263.4,3456.9 
	2263.4,3240.3 "/>59.5 
	2245.9,3242.9 "/>
</svg>
